<mxfile host="Electron" agent="Mozilla/5.0 (Windows NT 10.0; Win64; x64) AppleWebKit/537.36 (KHTML, like Gecko) draw.io/25.0.2 Chrome/128.0.6613.186 Electron/32.2.5 Safari/537.36" version="25.0.2">
  <diagram name="Page-1" id="58cdce13-f638-feb5-8d6f-7d28b1aa9fa0">
    <mxGraphModel dx="1195" dy="1547" grid="1" gridSize="10" guides="1" tooltips="1" connect="1" arrows="1" fold="1" page="1" pageScale="1" pageWidth="1100" pageHeight="850" background="none" math="0" shadow="0">
      <root>
        <mxCell id="0" />
        <mxCell id="1" parent="0" />
        <mxCell id="2a3bc250acf0617d-8" value="Clankboard Audio Routing" style="shape=umlFrame;whiteSpace=wrap;html=1;rounded=1;shadow=0;comic=0;labelBackgroundColor=none;strokeWidth=1;fontFamily=Verdana;fontSize=12;align=center;width=190;height=35;" parent="1" vertex="1">
          <mxGeometry x="88" y="-613" width="925" height="373" as="geometry" />
        </mxCell>
        <mxCell id="8p5UOd43fPs6g9PAAXC2-1" value="Microphone Input&lt;br style=&quot;font-size: 11px;&quot;&gt;&lt;font size=&quot;1&quot;&gt;(Can be disabled)&lt;/font&gt;" style="rounded=1;whiteSpace=wrap;html=1;arcSize=24;fillColor=#ffffc0;strokeColor=#ff0000;shadow=0;comic=0;labelBackgroundColor=none;fontFamily=Verdana;fontSize=12;fontColor=#000000;align=center;" parent="1" vertex="1">
          <mxGeometry x="113" y="-551" width="120" height="60" as="geometry" />
        </mxCell>
        <mxCell id="8p5UOd43fPs6g9PAAXC2-3" value="Soundboard Input" style="rounded=1;whiteSpace=wrap;html=1;arcSize=24;fillColor=#ffffc0;strokeColor=#ff0000;shadow=0;comic=0;labelBackgroundColor=none;fontFamily=Verdana;fontSize=12;fontColor=#000000;align=center;" parent="1" vertex="1">
          <mxGeometry x="113" y="-386" width="120" height="60" as="geometry" />
        </mxCell>
        <mxCell id="8p5UOd43fPs6g9PAAXC2-4" value="Resampler&lt;br&gt;&lt;font style=&quot;font-size: 9px;&quot;&gt;(To match Microphone Input)&lt;br&gt;(Ineffective if missing MIC IN)&lt;br&gt;&lt;/font&gt;" style="rounded=1;whiteSpace=wrap;html=1;arcSize=24;fillColor=#ffffc0;strokeColor=#ff0000;shadow=0;comic=0;labelBackgroundColor=none;fontFamily=Verdana;fontSize=12;fontColor=#000000;align=center;" parent="1" vertex="1">
          <mxGeometry x="286" y="-386" width="140" height="60" as="geometry" />
        </mxCell>
        <mxCell id="8p5UOd43fPs6g9PAAXC2-6" style="edgeStyle=orthogonalEdgeStyle;html=1;labelBackgroundColor=none;endArrow=open;endSize=8;strokeColor=#ff0000;fontFamily=Verdana;fontSize=12;align=left;entryX=0;entryY=0.5;entryDx=0;entryDy=0;" parent="1" source="8p5UOd43fPs6g9PAAXC2-3" target="8p5UOd43fPs6g9PAAXC2-4" edge="1">
          <mxGeometry relative="1" as="geometry">
            <mxPoint x="123" y="144" as="sourcePoint" />
            <mxPoint x="203" y="144" as="targetPoint" />
          </mxGeometry>
        </mxCell>
        <mxCell id="8p5UOd43fPs6g9PAAXC2-8" style="edgeStyle=orthogonalEdgeStyle;html=1;labelBackgroundColor=none;endArrow=open;endSize=8;strokeColor=#ff0000;fontFamily=Verdana;fontSize=12;align=left;exitX=0.5;exitY=0;exitDx=0;exitDy=0;entryX=0;entryY=0.75;entryDx=0;entryDy=0;" parent="1" source="8p5UOd43fPs6g9PAAXC2-4" target="8p5UOd43fPs6g9PAAXC2-12" edge="1">
          <mxGeometry relative="1" as="geometry">
            <mxPoint x="163" y="-346" as="sourcePoint" />
            <mxPoint x="213" y="-346" as="targetPoint" />
          </mxGeometry>
        </mxCell>
        <mxCell id="8p5UOd43fPs6g9PAAXC2-10" value="Audio chosen to be sent through&lt;br&gt;VoiceBox" style="edgeLabel;html=1;align=center;verticalAlign=middle;resizable=0;points=[];" parent="8p5UOd43fPs6g9PAAXC2-8" vertex="1" connectable="0">
          <mxGeometry x="0.1714" y="2" relative="1" as="geometry">
            <mxPoint x="2" y="43" as="offset" />
          </mxGeometry>
        </mxCell>
        <mxCell id="8p5UOd43fPs6g9PAAXC2-11" value="Output" style="rounded=1;whiteSpace=wrap;html=1;arcSize=24;fillColor=#ffffc0;strokeColor=#ff0000;shadow=0;comic=0;labelBackgroundColor=none;fontFamily=Verdana;fontSize=12;fontColor=#000000;align=center;" parent="1" vertex="1">
          <mxGeometry x="833" y="-551" width="140" height="60" as="geometry" />
        </mxCell>
        <mxCell id="8p5UOd43fPs6g9PAAXC2-12" value="VoiceBox Node&lt;br&gt;Cluster" style="rounded=1;whiteSpace=wrap;html=1;arcSize=24;fillColor=#ffffc0;strokeColor=#ff0000;shadow=0;comic=0;labelBackgroundColor=none;fontFamily=Verdana;fontSize=12;fontColor=#000000;align=center;" parent="1" vertex="1">
          <mxGeometry x="393" y="-536" width="120" height="60" as="geometry" />
        </mxCell>
        <mxCell id="8p5UOd43fPs6g9PAAXC2-13" style="edgeStyle=orthogonalEdgeStyle;html=1;labelBackgroundColor=none;endArrow=open;endSize=8;strokeColor=#ff0000;fontFamily=Verdana;fontSize=12;align=left;exitX=1;exitY=0.5;exitDx=0;exitDy=0;entryX=0;entryY=0.25;entryDx=0;entryDy=0;" parent="1" source="8p5UOd43fPs6g9PAAXC2-1" target="8p5UOd43fPs6g9PAAXC2-12" edge="1">
          <mxGeometry relative="1" as="geometry">
            <mxPoint x="333" y="-506" as="sourcePoint" />
            <mxPoint x="223" y="-496" as="targetPoint" />
            <Array as="points">
              <mxPoint x="393" y="-521" />
              <mxPoint x="393" y="-521" />
            </Array>
          </mxGeometry>
        </mxCell>
        <mxCell id="8p5UOd43fPs6g9PAAXC2-14" value="Mixer" style="rounded=1;whiteSpace=wrap;html=1;arcSize=24;fillColor=#ffffc0;strokeColor=#ff0000;shadow=0;comic=0;labelBackgroundColor=none;fontFamily=Verdana;fontSize=12;fontColor=#000000;align=center;" parent="1" vertex="1">
          <mxGeometry x="513" y="-456" width="120" height="60" as="geometry" />
        </mxCell>
        <mxCell id="8p5UOd43fPs6g9PAAXC2-15" style="edgeStyle=orthogonalEdgeStyle;html=1;labelBackgroundColor=none;endArrow=open;endSize=8;strokeColor=#ff0000;fontFamily=Verdana;fontSize=12;align=left;exitX=1;exitY=0.75;exitDx=0;exitDy=0;" parent="1" source="8p5UOd43fPs6g9PAAXC2-12" target="8p5UOd43fPs6g9PAAXC2-14" edge="1">
          <mxGeometry relative="1" as="geometry">
            <mxPoint x="343" y="-496" as="sourcePoint" />
            <mxPoint x="403" y="-496" as="targetPoint" />
            <Array as="points">
              <mxPoint x="573" y="-491" />
            </Array>
          </mxGeometry>
        </mxCell>
        <mxCell id="8p5UOd43fPs6g9PAAXC2-17" value="Local Output&lt;br&gt;(Can be disabled)" style="rounded=1;whiteSpace=wrap;html=1;arcSize=24;fillColor=#ffffc0;strokeColor=#ff0000;shadow=0;comic=0;labelBackgroundColor=none;fontFamily=Verdana;fontSize=12;fontColor=#000000;align=center;" parent="1" vertex="1">
          <mxGeometry x="833" y="-356" width="140" height="60" as="geometry" />
        </mxCell>
        <mxCell id="8p5UOd43fPs6g9PAAXC2-26" style="edgeStyle=orthogonalEdgeStyle;html=1;labelBackgroundColor=none;endArrow=open;endSize=8;strokeColor=#ff0000;fontFamily=Verdana;fontSize=12;align=left;exitX=1;exitY=0.5;exitDx=0;exitDy=0;dashed=1;entryX=0;entryY=0.5;entryDx=0;entryDy=0;" parent="1" source="8p5UOd43fPs6g9PAAXC2-30" target="8p5UOd43fPs6g9PAAXC2-17" edge="1">
          <mxGeometry relative="1" as="geometry">
            <mxPoint x="163" y="-496" as="sourcePoint" />
            <mxPoint x="723.0000000000002" y="-296" as="targetPoint" />
            <Array as="points">
              <mxPoint x="800" y="-521" />
              <mxPoint x="800" y="-326" />
            </Array>
          </mxGeometry>
        </mxCell>
        <mxCell id="8p5UOd43fPs6g9PAAXC2-27" value="Microphone Loopback&lt;div&gt;ENABLED&lt;/div&gt;" style="edgeLabel;html=1;align=center;verticalAlign=middle;resizable=0;points=[];" parent="8p5UOd43fPs6g9PAAXC2-26" vertex="1" connectable="0">
          <mxGeometry x="-0.3585" relative="1" as="geometry">
            <mxPoint as="offset" />
          </mxGeometry>
        </mxCell>
        <mxCell id="8p5UOd43fPs6g9PAAXC2-28" style="edgeStyle=orthogonalEdgeStyle;html=1;labelBackgroundColor=none;endArrow=open;endSize=8;strokeColor=#ff0000;fontFamily=Verdana;fontSize=12;align=left;exitX=0;exitY=0.75;exitDx=0;exitDy=0;entryX=1;entryY=0.75;entryDx=0;entryDy=0;dashed=1;dashPattern=1 1;" parent="1" source="8p5UOd43fPs6g9PAAXC2-12" target="8p5UOd43fPs6g9PAAXC2-12" edge="1">
          <mxGeometry relative="1" as="geometry">
            <mxPoint x="523" y="-511" as="sourcePoint" />
            <mxPoint x="763" y="-511" as="targetPoint" />
            <Array as="points" />
          </mxGeometry>
        </mxCell>
        <mxCell id="8p5UOd43fPs6g9PAAXC2-29" style="edgeStyle=orthogonalEdgeStyle;html=1;labelBackgroundColor=none;endArrow=open;endSize=8;strokeColor=#ff0000;fontFamily=Verdana;fontSize=12;align=left;exitX=0;exitY=0.25;exitDx=0;exitDy=0;entryX=1;entryY=0.25;entryDx=0;entryDy=0;dashed=1;dashPattern=1 1;" parent="1" source="8p5UOd43fPs6g9PAAXC2-12" target="8p5UOd43fPs6g9PAAXC2-12" edge="1">
          <mxGeometry relative="1" as="geometry">
            <mxPoint x="403" y="-481" as="sourcePoint" />
            <mxPoint x="523" y="-481" as="targetPoint" />
            <Array as="points" />
          </mxGeometry>
        </mxCell>
        <mxCell id="8p5UOd43fPs6g9PAAXC2-30" value="Mixer" style="rounded=1;whiteSpace=wrap;html=1;arcSize=24;fillColor=#ffffc0;strokeColor=#ff0000;shadow=0;comic=0;labelBackgroundColor=none;fontFamily=Verdana;fontSize=12;fontColor=#000000;align=center;" parent="1" vertex="1">
          <mxGeometry x="663" y="-551" width="120" height="60" as="geometry" />
        </mxCell>
        <mxCell id="8p5UOd43fPs6g9PAAXC2-31" style="edgeStyle=orthogonalEdgeStyle;html=1;labelBackgroundColor=none;endArrow=open;endSize=8;strokeColor=#ff0000;fontFamily=Verdana;fontSize=12;align=left;exitX=1;exitY=0.25;exitDx=0;exitDy=0;entryX=0;entryY=0.5;entryDx=0;entryDy=0;" parent="1" source="8p5UOd43fPs6g9PAAXC2-12" target="8p5UOd43fPs6g9PAAXC2-30" edge="1">
          <mxGeometry relative="1" as="geometry">
            <mxPoint x="652.99" y="-476" as="sourcePoint" />
            <mxPoint x="673" y="-526" as="targetPoint" />
            <Array as="points" />
          </mxGeometry>
        </mxCell>
        <mxCell id="8p5UOd43fPs6g9PAAXC2-32" style="edgeStyle=orthogonalEdgeStyle;html=1;labelBackgroundColor=none;endArrow=open;endSize=8;strokeColor=#ff0000;fontFamily=Verdana;fontSize=12;align=left;exitX=1;exitY=0.5;exitDx=0;exitDy=0;entryX=0.5;entryY=1;entryDx=0;entryDy=0;" parent="1" source="8p5UOd43fPs6g9PAAXC2-14" target="8p5UOd43fPs6g9PAAXC2-30" edge="1">
          <mxGeometry relative="1" as="geometry">
            <mxPoint x="683" y="-440.73" as="sourcePoint" />
            <mxPoint x="833" y="-440.73" as="targetPoint" />
            <Array as="points" />
          </mxGeometry>
        </mxCell>
        <mxCell id="8p5UOd43fPs6g9PAAXC2-33" style="edgeStyle=orthogonalEdgeStyle;html=1;labelBackgroundColor=none;endArrow=open;endSize=8;strokeColor=#ff0000;fontFamily=Verdana;fontSize=12;align=left;entryX=0.5;entryY=1;entryDx=0;entryDy=0;exitX=1;exitY=0.5;exitDx=0;exitDy=0;" parent="1" source="8p5UOd43fPs6g9PAAXC2-4" target="8p5UOd43fPs6g9PAAXC2-14" edge="1">
          <mxGeometry relative="1" as="geometry">
            <mxPoint x="243" y="-346" as="sourcePoint" />
            <mxPoint x="296" y="-346" as="targetPoint" />
          </mxGeometry>
        </mxCell>
        <mxCell id="8p5UOd43fPs6g9PAAXC2-35" style="edgeStyle=orthogonalEdgeStyle;html=1;labelBackgroundColor=none;endArrow=open;endSize=8;strokeColor=#ff0000;fontFamily=Verdana;fontSize=12;align=left;exitX=1;exitY=0.5;exitDx=0;exitDy=0;entryX=0;entryY=0.5;entryDx=0;entryDy=0;" parent="1" source="8p5UOd43fPs6g9PAAXC2-30" target="8p5UOd43fPs6g9PAAXC2-11" edge="1">
          <mxGeometry relative="1" as="geometry">
            <mxPoint x="803" y="-466" as="sourcePoint" />
            <mxPoint x="953" y="-466" as="targetPoint" />
            <Array as="points" />
          </mxGeometry>
        </mxCell>
        <mxCell id="8p5UOd43fPs6g9PAAXC2-39" style="edgeStyle=orthogonalEdgeStyle;html=1;labelBackgroundColor=none;endArrow=open;endSize=8;strokeColor=#ff0000;fontFamily=Verdana;fontSize=12;align=left;exitX=1;exitY=0.5;exitDx=0;exitDy=0;entryX=0;entryY=0.5;entryDx=0;entryDy=0;dashed=1;" parent="1" source="8p5UOd43fPs6g9PAAXC2-1" target="8p5UOd43fPs6g9PAAXC2-30" edge="1">
          <mxGeometry relative="1" as="geometry">
            <mxPoint x="243" y="-511" as="sourcePoint" />
            <mxPoint x="403" y="-511" as="targetPoint" />
            <Array as="points">
              <mxPoint x="350" y="-521" />
              <mxPoint x="350" y="-560" />
              <mxPoint x="550" y="-560" />
              <mxPoint x="550" y="-521" />
            </Array>
          </mxGeometry>
        </mxCell>
        <mxCell id="8p5UOd43fPs6g9PAAXC2-40" value="Skip VoiceBox if &lt;br&gt;voice changer is OFF" style="edgeLabel;html=1;align=center;verticalAlign=middle;resizable=0;points=[];" parent="8p5UOd43fPs6g9PAAXC2-39" vertex="1" connectable="0">
          <mxGeometry x="-0.0098" y="1" relative="1" as="geometry">
            <mxPoint x="8" y="1" as="offset" />
          </mxGeometry>
        </mxCell>
        <mxCell id="54fzPVZXTMa9MV7SchNL-1" style="edgeStyle=orthogonalEdgeStyle;html=1;labelBackgroundColor=none;endArrow=open;endSize=8;strokeColor=#ff0000;fontFamily=Verdana;fontSize=12;align=left;exitX=1;exitY=0.5;exitDx=0;exitDy=0;dashed=1;entryX=0;entryY=0.5;entryDx=0;entryDy=0;" edge="1" parent="1" source="8p5UOd43fPs6g9PAAXC2-14" target="8p5UOd43fPs6g9PAAXC2-17">
          <mxGeometry relative="1" as="geometry">
            <mxPoint x="793" y="-511" as="sourcePoint" />
            <mxPoint x="843" y="-316" as="targetPoint" />
            <Array as="points">
              <mxPoint x="760" y="-426" />
              <mxPoint x="760" y="-326" />
            </Array>
          </mxGeometry>
        </mxCell>
        <mxCell id="54fzPVZXTMa9MV7SchNL-2" value="Microphone Loopback&lt;div&gt;DISABLED&lt;/div&gt;" style="edgeLabel;html=1;align=center;verticalAlign=middle;resizable=0;points=[];" vertex="1" connectable="0" parent="54fzPVZXTMa9MV7SchNL-1">
          <mxGeometry x="-0.3585" relative="1" as="geometry">
            <mxPoint x="-6" y="46" as="offset" />
          </mxGeometry>
        </mxCell>
      </root>
    </mxGraphModel>
  </diagram>
</mxfile>
